<?xml version="1.0" standalone="no"?>
<!DOCTYPE svg PUBLIC "-//W3C//DTD SVG 20010904//EN"
 "http://www.w3.org/TR/2001/REC-SVG-20010904/DTD/svg10.dtd">
<svg version="1.0" xmlns="http://www.w3.org/2000/svg"
 width="192.000000pt" height="192.000000pt" viewBox="0 0 192.000000 192.000000"
 preserveAspectRatio="xMidYMid meet">
<metadata>
Created by potrace 1.11, written by Peter Selinger 2001-2013
</metadata>
<g transform="translate(0.000000,192.000000) scale(0.100000,-0.100000)"
fill="#000000" stroke="none">
<path d="M876 1864 c-3 -9 -4 -20 -1 -24 6 -10 -54 -25 -62 -16 -4 3 -15 -1
-25 -11 -12 -11 -18 -12 -18 -3 0 8 -8 10 -25 6 -17 -4 -31 -1 -41 8 -19 19
-44 10 -44 -16 0 -15 -4 -18 -17 -13 -48 20 -85 -3 -53 -33 l21 -19 -21 -6
c-11 -3 -20 -13 -21 -24 0 -11 -26 -35 -70 -63 -68 -43 -170 -138 -206 -190
-9 -14 -19 -27 -23 -30 -13 -12 -58 -89 -83 -143 -30 -64 -64 -177 -73 -247
-8 -54 -8 -204 -1 -243 5 -24 1 -29 -27 -41 -36 -15 -55 -36 -34 -37 7 0 3 -4
-10 -10 -35 -14 -19 -25 40 -28 74 -3 74 -11 0 -11 -35 0 -62 -4 -62 -10 0 -5
6 -10 13 -10 9 0 9 -2 -1 -8 -9 -6 -7 -13 10 -29 28 -25 64 -37 99 -34 24 2
31 -6 68 -74 152 -282 418 -452 736 -471 225 -14 457 65 621 210 51 45 57 48
92 40 80 -16 158 -6 187 26 47 52 28 131 -37 146 -18 4 -36 7 -40 6 -12 -3
-10 5 16 57 63 124 95 275 91 426 -9 322 -190 609 -480 760 -38 20 -73 43 -78
51 -4 7 -19 14 -32 14 -22 0 -24 3 -19 29 8 38 -13 51 -36 23 -17 -20 -17 -20
-34 -1 -13 16 -20 17 -36 9 -11 -6 -19 -16 -17 -23 1 -7 -5 -10 -13 -8 -8 2
-33 5 -56 6 -50 3 -65 11 -57 30 10 26 -15 45 -44 34 -15 -5 -34 -7 -42 -3
-32 14 -49 13 -55 -2z m-751 -1162 c-3 -3 -11 0 -18 7 -9 10 -8 11 6 5 10 -3
15 -9 12 -12z"/>
</g>
</svg>
